<?xml version="1.0" encoding="UTF-8" standalone="no"?>
<!DOCTYPE svg PUBLIC "-//W3C//DTD SVG 1.1//EN"
 "http://www.w3.org/Graphics/SVG/1.1/DTD/svg11.dtd">
<!-- Generated by graphviz version 2.38.0 (20140413.2041)
 -->
<!-- Title: G Pages: 1 -->
<svg width="635pt" height="116pt"
 viewBox="0.00 0.00 634.50 116.00" xmlns="http://www.w3.org/2000/svg" xmlns:xlink="http://www.w3.org/1999/xlink">
<g id="graph0" class="graph" transform="scale(1 1) rotate(0) translate(4 112)">
<title>G</title>
<polygon fill="white" stroke="none" points="-4,4 -4,-112 630.5,-112 630.5,4 -4,4"/>
<!-- shape1 -->
<g id="node1" class="node"><title>shape1</title>
<polygon fill="none" stroke="black" points="418.5,-108 189.5,-108 189.5,-72 418.5,-72 418.5,-108"/>
<text text-anchor="middle" x="304" y="-86.3" font-family="Times New Roman,serif" font-size="14.00">org.apache|hello&#45;ivy|working@Edmael</text>
</g>
<!-- shape0 -->
<g id="node2" class="node"><title>shape0</title>
<g id="a_node2"><a xlink:href="C:/Users/Leonie/.ivy2/cache/commons-cli/commons-cli/ivy-1.0.xml" xlink:title="commons&#45;cli|commons&#45;cli|1.0">
<polygon fill="none" stroke="black" points="184,-36 0,-36 0,-0 184,-0 184,-36"/>
<text text-anchor="middle" x="92" y="-14.3" font-family="Times New Roman,serif" font-size="14.00">commons&#45;cli|commons&#45;cli|1.0</text>
</a>
</g>
</g>
<!-- shape1&#45;&gt;shape0 -->
<g id="edge1" class="edge"><title>shape1&#45;&gt;shape0</title>
<path fill="none" stroke="black" d="M252.41,-71.9656C222.531,-62.1 184.74,-49.6215 153.344,-39.255"/>
<polygon fill="black" stroke="black" points="154.414,-35.9227 143.821,-36.1108 152.22,-42.5698 154.414,-35.9227"/>
</g>
<!-- shape2 -->
<g id="node3" class="node"><title>shape2</title>
<g id="a_node3"><a xlink:href="C:/Users/Leonie/.ivy2/cache/commons-lang/commons-lang/ivy-2.0.xml" xlink:title="commons&#45;lang|commons&#45;lang|2.0">
<polygon fill="none" stroke="black" points="405.5,-36 202.5,-36 202.5,-0 405.5,-0 405.5,-36"/>
<text text-anchor="middle" x="304" y="-14.3" font-family="Times New Roman,serif" font-size="14.00">commons&#45;lang|commons&#45;lang|2.0</text>
</a>
</g>
</g>
<!-- shape1&#45;&gt;shape2 -->
<g id="edge2" class="edge"><title>shape1&#45;&gt;shape2</title>
<path fill="none" stroke="black" d="M304,-71.6966C304,-63.9827 304,-54.7125 304,-46.1124"/>
<polygon fill="black" stroke="black" points="307.5,-46.1043 304,-36.1043 300.5,-46.1044 307.5,-46.1043"/>
</g>
<!-- shape3 -->
<g id="node4" class="node"><title>shape3</title>
<polygon fill="none" stroke="black" points="626.5,-36 423.5,-36 423.5,-0 626.5,-0 626.5,-36"/>
<text text-anchor="middle" x="525" y="-14.3" font-family="Times New Roman,serif" font-size="14.00">commons&#45;lang|commons&#45;lang|1.0</text>
</g>
<!-- shape1&#45;&gt;shape3 -->
<g id="edge3" class="edge"><title>shape1&#45;&gt;shape3</title>
<path fill="none" stroke="black" d="M357.78,-71.9656C388.927,-62.1 428.323,-49.6215 461.052,-39.255"/>
<polygon fill="black" stroke="black" points="462.502,-42.4671 470.979,-36.1108 460.389,-35.7938 462.502,-42.4671"/>
</g>
</g>
</svg>
